<svg width="17" height="17" viewBox="0 0 17 17" fill="none" xmlns="http://www.w3.org/2000/svg">
<path d="M3.83414 16.4657H0.564609V5.95398H3.83414V16.4657ZM2.1818 4.54773C1.16226 4.54773 0.318515 3.66882 0.318515 2.61414C0.318515 1.5946 1.16226 0.750854 2.1818 0.750854C3.23648 0.750854 4.08023 1.5946 4.08023 2.61414C4.08023 3.66882 3.23648 4.54773 2.1818 4.54773ZM16.0334 16.4657H12.799V11.368C12.799 10.1376 12.7638 8.5907 11.0763 8.5907C9.38883 8.5907 9.14273 9.89148 9.14273 11.2626V16.4657H5.8732V5.95398H9.00211V7.39539H9.03726C9.4943 6.58679 10.549 5.70789 12.131 5.70789C15.4357 5.70789 16.0685 7.88757 16.0685 10.7001V16.4657H16.0334Z" fill="#292F36"/>
</svg>
