<svg width="19" height="16" viewBox="0 0 19 16" fill="none" xmlns="http://www.w3.org/2000/svg">
<path d="M16.3593 4.05945C17.0624 3.5321 17.6952 2.89929 18.1874 2.16101C17.5546 2.44226 16.8163 2.6532 16.078 2.72351C16.8515 2.26648 17.414 1.56335 17.6952 0.684448C16.9921 1.10632 16.1835 1.42273 15.3749 1.59851C14.6718 0.860229 13.7226 0.438354 12.6679 0.438354C10.6288 0.438354 8.97646 2.0907 8.97646 4.12976C8.97646 4.41101 9.01162 4.69226 9.08193 4.97351C6.02334 4.79773 3.28115 3.32117 1.45303 1.10632C1.13662 1.63367 0.960838 2.26648 0.960838 2.9696C0.960838 4.23523 1.59365 5.36023 2.61318 6.0282C2.01553 5.99304 1.41787 5.85242 0.925682 5.57117V5.60632C0.925682 7.39929 2.19131 8.87585 3.87881 9.22742C3.59756 9.29773 3.24599 9.36804 2.92959 9.36804C2.68349 9.36804 2.47256 9.33289 2.22646 9.29773C2.68349 10.7743 4.05459 11.829 5.67178 11.8641C4.40615 12.8485 2.82412 13.4462 1.10146 13.4462C0.785057 13.4462 0.503807 13.411 0.222557 13.3759C1.83974 14.4305 3.77334 15.0282 5.88271 15.0282C12.6679 15.0282 16.3593 9.43835 16.3593 4.55164C16.3593 4.37585 16.3593 4.23523 16.3593 4.05945Z" fill="#292F36"/>
</svg>
